<svg id="visual" viewBox="0 0 960 540" width="960" height="540" xmlns="http://www.w3.org/2000/svg" xmlns:xlink="http://www.w3.org/1999/xlink" version="1.1"><rect x="0" y="0" width="960" height="540" fill="#001220"></rect><path d="M0 314L22.8 328.3C45.7 342.7 91.3 371.3 137 385.5C182.7 399.7 228.3 399.3 274 398.2C319.7 397 365.3 395 411.2 388.7C457 382.3 503 371.7 548.8 365.5C594.7 359.3 640.3 357.7 686 362.7C731.7 367.7 777.3 379.3 823 380.2C868.7 381 914.3 371 937.2 366L960 361L960 541L937.2 541C914.3 541 868.7 541 823 541C777.3 541 731.7 541 686 541C640.3 541 594.7 541 548.8 541C503 541 457 541 411.2 541C365.3 541 319.7 541 274 541C228.3 541 182.7 541 137 541C91.3 541 45.7 541 22.8 541L0 541Z" fill="#757575"></path><path d="M0 405L22.8 408.3C45.7 411.7 91.3 418.3 137 411.5C182.7 404.7 228.3 384.3 274 381.2C319.7 378 365.3 392 411.2 392.7C457 393.3 503 380.7 548.8 380C594.7 379.3 640.3 390.7 686 399C731.7 407.3 777.3 412.7 823 405.2C868.7 397.7 914.3 377.3 937.2 367.2L960 357L960 541L937.2 541C914.3 541 868.7 541 823 541C777.3 541 731.7 541 686 541C640.3 541 594.7 541 548.8 541C503 541 457 541 411.2 541C365.3 541 319.7 541 274 541C228.3 541 182.7 541 137 541C91.3 541 45.7 541 22.8 541L0 541Z" fill="#5b5b5b"></path><path d="M0 398L22.8 399.8C45.7 401.7 91.3 405.3 137 414.2C182.7 423 228.3 437 274 440C319.7 443 365.3 435 411.2 425.7C457 416.3 503 405.7 548.8 407.2C594.7 408.7 640.3 422.3 686 428.5C731.7 434.7 777.3 433.3 823 434.8C868.7 436.3 914.3 440.7 937.2 442.8L960 445L960 541L937.2 541C914.3 541 868.7 541 823 541C777.3 541 731.7 541 686 541C640.3 541 594.7 541 548.8 541C503 541 457 541 411.2 541C365.3 541 319.7 541 274 541C228.3 541 182.7 541 137 541C91.3 541 45.7 541 22.8 541L0 541Z" fill="#434343"></path><path d="M0 463L22.8 459.5C45.7 456 91.3 449 137 448.3C182.7 447.7 228.3 453.3 274 456.7C319.7 460 365.3 461 411.2 460.3C457 459.7 503 457.3 548.8 459.2C594.7 461 640.3 467 686 470C731.7 473 777.3 473 823 474.3C868.7 475.7 914.3 478.3 937.2 479.7L960 481L960 541L937.2 541C914.3 541 868.7 541 823 541C777.3 541 731.7 541 686 541C640.3 541 594.7 541 548.8 541C503 541 457 541 411.2 541C365.3 541 319.7 541 274 541C228.3 541 182.7 541 137 541C91.3 541 45.7 541 22.8 541L0 541Z" fill="#2c2c2c"></path><path d="M0 479L22.8 484.8C45.7 490.7 91.3 502.3 137 503.7C182.7 505 228.3 496 274 489.8C319.7 483.7 365.3 480.3 411.2 482.8C457 485.3 503 493.7 548.8 495.3C594.7 497 640.3 492 686 492.8C731.7 493.7 777.3 500.3 823 505C868.7 509.7 914.3 512.3 937.2 513.7L960 515L960 541L937.2 541C914.3 541 868.7 541 823 541C777.3 541 731.7 541 686 541C640.3 541 594.7 541 548.8 541C503 541 457 541 411.2 541C365.3 541 319.7 541 274 541C228.3 541 182.7 541 137 541C91.3 541 45.7 541 22.8 541L0 541Z" fill="#161616"></path></svg>